<svg width="128" height="40" viewBox="0 0 128 40" fill="none" xmlns="http://www.w3.org/2000/svg">
<path d="M17.272 30.9447C17.868 27.4441 20.5839 25.2237 24.6998 25.2237H35.3957C39.3876 25.2237 40.2356 22.6357 40.2356 22.6357C39.6396 26.1363 38.0156 28.3568 33.8997 28.3568H22.9279C18.388 28.3568 17.272 30.9447 17.272 30.9447Z" fill="#DF2325"/>
<path d="M35.2113 29.0244C34.3033 30.3717 33.2513 30.4902 31.2553 30.4902C29.2593 30.4902 26.9154 30.5337 23.6714 30.4902C20.1795 30.4428 17.4835 31.9995 17.2635 35.3855C18.1715 34.0383 19.3515 33.7933 21.3475 33.7933C23.3434 33.7933 24.5434 33.7498 27.7874 33.7933C31.2753 33.8447 34.0033 32.3235 35.2113 29.0244Z" fill="#EE4523"/>
<path d="M17.2714 38.1948C17.2714 36.8475 19.1393 36.1245 21.3713 36.1245C23.6033 36.1245 27.9232 36.4168 29.7592 35.1367C29.2592 36.6144 24.6992 40.0004 20.1433 40.0004C18.0793 40.0004 17.2714 39.0166 17.2714 38.1948Z" fill="#FE5F3E"/>
<path d="M9.1676 17.0609C12.7115 17.6496 14.9595 20.3324 14.9595 24.3979V34.9629C14.9595 38.9061 17.5795 39.7437 17.5795 39.7437C14.0355 39.155 11.7876 37.5509 11.7876 33.4853V22.6476C11.7876 18.1593 9.1676 17.0609 9.1676 17.0609Z" fill="#172C4F"/>
<path d="M11.1105 34.7769C9.74657 33.88 9.62657 32.8409 9.62657 30.8693C9.62657 28.8978 9.58257 26.5825 9.62657 23.3782C9.67457 19.929 8.0986 17.266 4.67065 17.0487C6.03463 17.9456 6.28263 19.1111 6.28263 21.0827C6.28263 23.0542 6.32663 24.2395 6.28263 27.4438C6.23463 30.8931 7.7706 33.5837 11.1105 34.7769Z" fill="#264A74"/>
<path d="M1.83197 17.0617C3.19595 17.0617 3.92793 18.9068 3.92793 21.1115C3.92793 23.3122 3.63194 27.5833 4.92792 29.3968C3.42794 28.9029 0 24.3987 0 19.8946C0 17.8559 0.999984 17.0617 1.83197 17.0617Z" fill="#345A87"/>
<path d="M23.2281 9.05566C22.6321 12.5563 19.9162 14.7767 15.8002 14.7767H5.10042C1.10848 14.7767 0.260498 17.3646 0.260498 17.3646C0.856488 13.864 2.48046 11.6436 6.59639 11.6436H17.5682C22.1121 11.6436 23.2281 9.05566 23.2281 9.05566Z" fill="#DF2325"/>
<path d="M5.28821 10.9759C6.19619 9.62858 7.24818 9.51005 9.24414 9.51005C11.2401 9.51005 13.5841 9.46659 16.828 9.51005C20.32 9.55746 23.0159 8.00076 23.2359 4.61475C22.3279 5.96204 21.1479 6.207 19.152 6.207C17.156 6.207 15.956 6.25046 12.7121 6.207C9.22414 6.15564 6.49619 7.67678 5.28821 10.9759Z" fill="#EE4523"/>
<path d="M23.2292 1.80561C23.2292 3.1529 21.3613 3.87594 19.1293 3.87594C16.8974 3.87594 12.5774 3.58357 10.7415 4.8637C11.2414 3.38602 15.8014 0 20.3573 0C22.4213 0 23.2292 0.983799 23.2292 1.80561Z" fill="#FE5F3E"/>
<path d="M31.3309 22.9396C27.787 22.3509 25.539 19.6682 25.539 15.6026V5.03756C25.539 1.09445 22.9191 0.256836 22.9191 0.256836C26.463 0.845537 28.711 2.44965 28.711 6.51524V17.3529C28.711 21.8412 31.3309 22.9396 31.3309 22.9396Z" fill="#172C4F"/>
<path d="M29.387 5.22314C30.7509 6.12002 30.8709 7.15914 30.8709 9.1307C30.8709 11.1023 30.9149 13.4175 30.8709 16.6218C30.8229 20.071 32.3989 22.734 35.8269 22.9513C34.4629 22.0545 34.2149 20.8889 34.2149 18.9173C34.2149 16.9458 34.1709 15.7605 34.2149 12.5562C34.2629 9.10699 32.7269 6.41635 29.387 5.22314Z" fill="#264A74"/>
<path d="M38.6664 22.9396C37.3024 22.9396 36.5704 21.0944 36.5704 18.8898C36.5704 16.6891 36.8664 12.418 35.5704 10.6045C37.0664 11.0984 40.4944 15.6025 40.4944 20.1027C40.4984 22.1454 39.4984 22.9396 38.6664 22.9396Z" fill="#345A87"/>
<path d="M56.9155 4.29492V22.3629H64.1034V26.547H51.4276V4.29492H56.9155Z" fill="#172C4F"/>
<path d="M80.536 8.63709H72.2241V13.1373H79.572V17.3214H72.2241V22.2049H80.536V26.547H66.7362V4.29492H80.536V8.63709Z" fill="#172C4F"/>
<path d="M98.1239 22.6158H89.716L88.3681 26.547H82.6241L90.776 4.29492H97.1319L105.284 26.547H99.4759L98.1239 22.6158ZM93.92 10.2847L91.16 18.4316H96.7119L93.92 10.2847Z" fill="#172C4F"/>
<path d="M127.999 15.421C127.999 22.0152 123.38 26.547 116.192 26.547H107.752V4.29492H116.192C123.38 4.29492 127.999 8.79513 127.999 15.421ZM115.836 21.8532C119.976 21.8532 122.416 19.5063 122.416 15.417C122.416 11.3277 119.976 8.9176 115.836 8.9176H113.236V21.8493H115.836V21.8532Z" fill="#172C4F"/>
<path d="M77.7882 34.5441H75.4882L75.0922 35.6543H74.1522L76.1202 30.2217H77.1642L79.1321 35.6543H78.1842L77.7882 34.5441ZM76.6402 31.2964L75.7402 33.8171H77.5362L76.6402 31.2964Z" fill="#172C4F"/>
<path d="M86.8605 32.6608C86.8605 34.3321 85.7045 35.3554 83.9445 35.3554H82.1486V29.9307H83.9445C85.7045 29.9267 86.8605 30.9816 86.8605 32.6608ZM83.9445 34.6284C85.2405 34.6284 85.9365 33.8935 85.9365 32.6608C85.9365 31.4202 85.2405 30.6537 83.9445 30.6537H83.0525V34.6284H83.9445Z" fill="#172C4F"/>
<path d="M93.4767 30.2256H94.4247L92.3607 35.6503H91.3167L89.2448 30.2256H90.2087L91.8367 34.7376L93.4767 30.2256Z" fill="#172C4F"/>
<path d="M97.3723 30.2256H98.2718V35.6503H97.3723V30.2256Z" fill="#172C4F"/>
<path d="M103.536 35.706C102.436 35.706 101.592 35.1133 101.592 34.1532H102.556C102.596 34.5997 102.912 34.9592 103.536 34.9592C104.168 34.9592 104.524 34.6234 104.524 34.1611C104.524 32.8494 101.608 33.6988 101.608 31.6996C101.608 30.7474 102.376 30.1548 103.496 30.1548C104.548 30.1548 105.292 30.7 105.368 31.6325H104.372C104.34 31.265 104.016 30.9292 103.448 30.9134C102.928 30.8976 102.524 31.1465 102.524 31.672C102.524 32.8968 105.432 32.1342 105.432 34.1176C105.432 34.9276 104.76 35.706 103.536 35.706Z" fill="#172C4F"/>
<path d="M111.188 35.7055C109.64 35.7055 108.38 34.5597 108.38 32.924C108.38 31.3001 109.636 30.1504 111.188 30.1504C112.752 30.1504 113.996 31.2962 113.996 32.924C113.996 34.5597 112.756 35.7055 111.188 35.7055ZM111.188 34.9351C112.28 34.9351 113.068 34.1528 113.068 32.928C113.068 31.7031 112.276 30.9366 111.188 30.9366C110.096 30.9366 109.308 31.7031 109.308 32.928C109.308 34.1528 110.1 34.9351 111.188 34.9351Z" fill="#172C4F"/>
<path d="M119.096 30.2256C120.4 30.2256 121.04 30.9684 121.04 31.8495C121.04 32.4895 120.692 33.177 119.768 33.4022L121.128 35.6503H120.052L118.788 33.4812H118.1V35.6503H117.2V30.2256H119.096ZM119.096 30.9526H118.1V32.77H119.096C119.8 32.77 120.116 32.3868 120.116 31.8495C120.116 31.3042 119.8 30.9526 119.096 30.9526Z" fill="#172C4F"/>
<path d="M126.104 35.706C125.004 35.706 124.16 35.1133 124.16 34.1532H125.124C125.164 34.5997 125.48 34.9592 126.104 34.9592C126.736 34.9592 127.092 34.6234 127.092 34.1611C127.092 32.8494 124.176 33.6988 124.176 31.6996C124.176 30.7474 124.944 30.1548 126.064 30.1548C127.116 30.1548 127.86 30.7 127.936 31.6325H126.94C126.908 31.265 126.584 30.9292 126.016 30.9134C125.496 30.8976 125.092 31.1465 125.092 31.672C125.092 32.8968 128 32.1342 128 34.1176C128 34.9276 127.328 35.706 126.104 35.706Z" fill="#172C4F"/>
</svg>
